<svg xmlns="http://www.w3.org/2000/svg" viewBox="0 0 512 512">
  <defs>
    <filter id="glow" x="-20%" y="-20%" width="140%" height="140%">
      <feGaussianBlur stdDeviation="15" result="blur" />
      <feComposite in="SourceGraphic" in2="blur" operator="over" />
    </filter>
  </defs>
  <path d="M256 0C114.6 0 0 114.6 0 256s114.6 256 256 256 256-114.6 256-256S397.4 0 256 0zm0 472c-119.3 0-216-96.7-216-216S136.7 40 256 40s216 96.7 216 216-96.7 216-216 216z" fill="#ffffff" opacity="0.1"/>
  <path d="M256 64L64 149.3v128c0 132.5 82.9 250.4 203.2 290.7 120.3-40.3 203.2-158.2 203.2-290.7v-128L256 64zm0 405.1C164.5 432.2 104 336.7 104 277.3v-98.5l152-67.6 152 67.6v98.5c0 59.4-60.5 154.9-152 191.8z" fill="#ffffff" filter="url(#glow)"/>
  <path d="M256 160l-70 70h40v110h60V230h40L256 160z" fill="#ffffff"/>
</svg>
